<?xml version="1.0" encoding="utf-8"?>
<!-- Generator: Adobe Illustrator 27.4.0, SVG Export Plug-In . SVG Version: 6.00 Build 0)  -->
<svg version="1.1" id="Layer_1" xmlns="http://www.w3.org/2000/svg" xmlns:xlink="http://www.w3.org/1999/xlink" x="0px" y="0px"
	 viewBox="0 0 300 62" style="enable-background:new 0 0 300 62;" xml:space="preserve">
<style type="text/css">
	.st0{fill-rule:evenodd;clip-rule:evenodd;fill:#FFFFFF;}
	.st1{fill-rule:evenodd;clip-rule:evenodd;fill:#EC1C24;}
	.st2{fill-rule:evenodd;clip-rule:evenodd;fill:#C3161C;}
	.st3{fill-rule:evenodd;clip-rule:evenodd;fill:#A44685;}
	.st4{fill-rule:evenodd;clip-rule:evenodd;fill:#85356C;}
	.st5{fill-rule:evenodd;clip-rule:evenodd;fill:#005495;}
	.st6{fill-rule:evenodd;clip-rule:evenodd;fill:#2C3D7F;}
	.st7{fill-rule:evenodd;clip-rule:evenodd;fill:#0094D9;}
	.st8{fill-rule:evenodd;clip-rule:evenodd;fill:#006EB6;}
	.st9{fill-rule:evenodd;clip-rule:evenodd;fill:#00A551;}
	.st10{fill-rule:evenodd;clip-rule:evenodd;fill:#006A44;}
	.st11{fill-rule:evenodd;clip-rule:evenodd;fill:#A5CD39;}
	.st12{fill-rule:evenodd;clip-rule:evenodd;fill:#72BE44;}
	.st13{fill-rule:evenodd;clip-rule:evenodd;fill:#FFCA05;}
	.st14{fill-rule:evenodd;clip-rule:evenodd;fill:#F9A51A;}
	.st15{fill-rule:evenodd;clip-rule:evenodd;fill:#F48120;}
	.st16{fill-rule:evenodd;clip-rule:evenodd;fill:#F05A22;}
	.st17{fill-rule:evenodd;clip-rule:evenodd;fill:#161B47;}
	.st18{fill-rule:evenodd;clip-rule:evenodd;fill:#006234;}
	.st19{fill-rule:evenodd;clip-rule:evenodd;fill:#720E2D;}
	.st20{fill-rule:evenodd;clip-rule:evenodd;fill:#96191D;}
	.st21{fill-rule:evenodd;clip-rule:evenodd;fill:#C1432A;}
	.st22{fill-rule:evenodd;clip-rule:evenodd;fill:#856026;}
	.st23{fill-rule:evenodd;clip-rule:evenodd;fill:#1B5027;}
	.st24{fill-rule:evenodd;clip-rule:evenodd;fill:#1E2F5E;}
</style>
<g>
	<path class="st0" d="M133,32.6h7.1c0-0.5-0.1-0.9-0.2-1.4c-0.1-0.5-0.3-1-0.6-1.5c-0.3-0.4-0.6-0.8-1-1.1c-0.5-0.3-1.1-0.4-1.6-0.4
		c-0.6,0-1.1,0.1-1.6,0.4c-0.5,0.3-0.8,0.7-1.1,1.1c-0.3,0.5-0.5,1-0.7,1.5C133.1,31.7,133,32.1,133,32.6 M190.7,36.2
		c-0.5,0-1.1,0-1.6,0c-0.7,0-1.4,0.1-2,0.2c-0.7,0.1-1.3,0.3-2,0.5c-0.6,0.2-1.2,0.5-1.7,0.9c-0.5,0.3-0.9,0.8-1.2,1.3
		c-0.3,0.6-0.4,1.2-0.4,1.9c0,0.6,0.1,1.1,0.3,1.6c0.2,0.4,0.4,0.8,0.8,1.1c0.3,0.3,0.7,0.5,1.1,0.7c0.4,0.1,0.9,0.2,1.3,0.2
		c0.7,0,1.4-0.1,2.1-0.3c0.6-0.2,1.1-0.5,1.5-0.9c0.4-0.3,0.8-0.7,1-1.2c0.2-0.4,0.5-0.8,0.6-1.2c0.1-0.3,0.2-0.6,0.2-1V36.2z
		 M176.5,38.5V35c0-0.8-0.1-1.6-0.4-2.4c-0.3-0.7-0.7-1.3-1.2-1.9c-0.5-0.5-1.1-1-1.8-1.2c-0.7-0.3-1.5-0.5-2.3-0.5
		c-0.9,0-1.8,0.2-2.6,0.6c-0.8,0.4-1.5,0.9-2,1.6c-0.6,0.7-1,1.6-1.3,2.5c-0.3,1-0.5,2.1-0.5,3.2c0,0.8,0.1,1.5,0.3,2.3
		c0.2,0.7,0.4,1.4,0.8,2.1c0.3,0.6,0.8,1.2,1.3,1.7c0.5,0.5,1.1,0.9,1.8,1.1c0.7,0.3,1.5,0.4,2.2,0.4c0.7,0,1.4-0.1,2-0.4
		c0.6-0.2,1.1-0.6,1.6-1c0.5-0.4,0.9-0.9,1.2-1.4c0.3-0.5,0.6-1.1,0.8-1.7C176.4,39.6,176.5,39.1,176.5,38.5z M277.2,35.2
		c-0.7,0-1.3,0.1-2,0.2c-0.7,0.1-1.3,0.3-1.9,0.6c-0.5,0.2-1,0.6-1.3,1.1c-0.4,0.5-0.5,1.1-0.5,1.7c0,0.5,0.1,1.1,0.3,1.5
		c0.2,0.4,0.5,0.7,0.9,0.8c0.4,0.2,0.8,0.3,1.2,0.3c0.4,0,0.7-0.1,1-0.2c0.4-0.1,0.8-0.3,1.1-0.6c0.4-0.3,0.6-0.6,0.8-1
		c0.3-0.5,0.3-1,0.3-1.6V35.2z M69.2,21c-0.8,0-1.5,0.2-2.2,0.5c-0.7,0.4-1.3,0.9-1.7,1.5c-0.5,0.7-0.9,1.4-1.2,2.2
		c-0.3,0.9-0.6,1.8-0.7,2.7c-0.2,1-0.2,2-0.2,3c0,1.3,0.1,2.6,0.4,3.9c0.2,1.1,0.6,2.2,1.2,3.2c0.5,0.8,1.1,1.6,1.9,2.1
		c0.8,0.5,1.7,0.8,2.6,0.8c0.9,0,1.8-0.2,2.6-0.8c0.8-0.5,1.4-1.3,1.9-2.1c0.6-1,0.9-2.1,1.2-3.2c0.3-1.3,0.4-2.7,0.4-4
		c0-1-0.1-2-0.2-3c-0.1-0.9-0.4-1.8-0.7-2.7c-0.3-0.8-0.7-1.5-1.2-2.2c-0.5-0.6-1-1.1-1.7-1.5C70.7,21.1,69.9,21,69.2,21z M154,24.4
		h4.4c0.1,0,0.2,0.1,0.2,0.2v4.1c0,0.1-0.1,0.2-0.2,0.2H154v8.8c0,0.8,0.1,1.9,0.6,2.6c0.4,0.6,1,0.7,1.7,0.7c0.3,0,0.6,0,1,0
		c0.3,0,0.5-0.1,0.8-0.1c0.1,0,0.1,0,0.2,0c0.1,0,0.1,0.1,0.1,0.2l0.1,4.2c0,0.1-0.1,0.2-0.1,0.2c-0.5,0.2-1.1,0.3-1.6,0.4
		c-0.7,0.1-1.5,0.1-2.2,0.1c-0.9,0-1.8-0.1-2.6-0.4c-0.7-0.2-1.3-0.6-1.8-1.1c-0.5-0.4-0.8-0.9-1.1-1.5c-0.3-0.5-0.5-1.1-0.6-1.7
		c-0.1-0.5-0.2-1.1-0.2-1.6c0-0.5,0-0.9,0-1.4V21.5c0-0.1,0-0.2,0.1-0.2l5.5-2.3c0.1,0,0.1,0,0.2,0c0.1,0,0.1,0.1,0.1,0.2V24.4z
		 M133,36.8c0.1,0.7,0.2,1.4,0.5,2c0.3,0.6,0.7,1.1,1.2,1.5c0.5,0.4,1.1,0.7,1.7,0.8c0.7,0.2,1.4,0.3,2.1,0.3c0.9,0,1.9-0.1,2.8-0.2
		c0.8-0.1,1.5-0.3,2.3-0.6c0.1,0,0.1,0,0.2,0c0.1,0,0.1,0.1,0.1,0.1l0.8,3.8c0,0.1,0,0.2-0.1,0.2c-0.6,0.3-1.3,0.5-2,0.6
		c-0.8,0.2-1.5,0.3-2.3,0.4c-0.8,0.1-1.7,0.1-2.6,0.1c-1.9,0-3.9-0.3-5.6-1.3c-1.6-0.9-2.7-2.1-3.5-3.7c-0.9-1.8-1.2-3.7-1.2-5.7
		c0-1.2,0.1-2.4,0.4-3.5c0.3-1.1,0.7-2.1,1.2-3.1c0.5-0.9,1.2-1.8,2-2.5c0.8-0.7,1.7-1.3,2.7-1.6c1.1-0.4,2.3-0.6,3.4-0.6
		c1.6,0,3.2,0.3,4.6,1.2c1.4,0.8,2.3,2.1,3,3.6c0.8,1.8,1.1,3.8,1.1,5.7c0,0.4,0,0.8,0,1.2c0,0.3-0.1,0.7-0.1,1
		c0,0.1-0.1,0.2-0.2,0.2H133z M124.6,16.2v29.1c0,0.1-0.1,0.2-0.2,0.2h-5.6c-0.1,0-0.2-0.1-0.2-0.2V16.2c0-0.1,0.1-0.2,0.2-0.2h5.6
		C124.5,16,124.6,16.1,124.6,16.2z M111.8,24.4h4.4c0.1,0,0.2,0.1,0.2,0.2v4.1c0,0.1-0.1,0.2-0.2,0.2h-4.4v8.8
		c0,0.8,0.1,1.9,0.6,2.6c0.4,0.6,1,0.7,1.7,0.7c0.3,0,0.6,0,1,0c0.3,0,0.5-0.1,0.8-0.1c0.1,0,0.1,0,0.2,0c0.1,0,0.1,0.1,0.1,0.2
		l0.1,4.2c0,0.1-0.1,0.2-0.1,0.2c-0.5,0.2-1.1,0.3-1.6,0.4c-0.7,0.1-1.5,0.1-2.2,0.1c-0.9,0-1.8-0.1-2.6-0.4
		c-0.7-0.2-1.3-0.6-1.8-1.1c-0.5-0.4-0.8-0.9-1.1-1.5c-0.3-0.5-0.5-1.1-0.6-1.7c-0.1-0.5-0.2-1.1-0.2-1.6c0-0.5,0-0.9,0-1.4V21.5
		c0-0.1,0-0.2,0.1-0.2l5.5-2.3c0.1,0,0.1,0,0.2,0c0.1,0,0.1,0.1,0.1,0.2V24.4z M97,43c-0.2,0.3-0.4,0.5-0.6,0.8
		c-0.4,0.4-0.8,0.8-1.3,1.1c-0.5,0.4-1.2,0.6-1.8,0.8c-0.7,0.2-1.5,0.3-2.2,0.3c-1.3,0-2.5-0.3-3.6-0.9c-1.1-0.7-1.9-1.7-2.4-2.9
		c-0.7-1.6-0.9-3.4-0.9-5.1V24.6c0-0.1,0.1-0.2,0.2-0.2h5.6c0.1,0,0.2,0.1,0.2,0.2v11.5c0,0.9,0.1,1.8,0.3,2.7
		c0.2,0.6,0.5,1.2,1,1.7c0.5,0.4,1.1,0.6,1.7,0.6c0.6,0,1.1-0.2,1.6-0.5c0.5-0.3,0.9-0.7,1.2-1.3c0.3-0.6,0.5-1.3,0.5-1.9V24.6
		c0-0.1,0.1-0.2,0.2-0.2h5.6c0.1,0,0.2,0.1,0.2,0.2V39c0,1.1,0,2.3,0.1,3.4c0,1,0.1,1.9,0.1,2.9c0,0.1,0,0.1-0.1,0.2
		c0,0-0.1,0.1-0.2,0.1h-4.9c-0.1,0-0.2-0.1-0.2-0.2L97,43z M204,29.2l-0.6,0.9c0,0-0.1,0.1-0.1,0.1c-0.1,0-0.1,0-0.2,0
		c-0.5-0.3-0.9-0.6-1.5-0.8c-0.5-0.2-1.1-0.3-1.6-0.3c-0.5,0-1,0.1-1.5,0.3c-0.4,0.2-0.8,0.4-1.1,0.7c-0.3,0.3-0.5,0.6-0.7,1
		c-0.2,0.4-0.2,0.7-0.2,1.1c0,0.5,0.1,1.1,0.4,1.5c0.3,0.5,0.7,0.8,1.2,1.1c0.6,0.4,1.3,0.7,2,1c0.8,0.3,1.7,0.7,2.4,1.2
		c0.6,0.4,1.2,1,1.6,1.7c0.4,0.7,0.6,1.5,0.6,2.3c0,0.7-0.1,1.4-0.4,2.1c-0.3,0.6-0.7,1.1-1.2,1.6c-0.5,0.5-1.2,0.8-1.8,1
		c-0.7,0.2-1.5,0.3-2.3,0.3c-0.8,0-1.6-0.1-2.3-0.3c-0.7-0.2-1.4-0.5-2-0.9c-0.1-0.1-0.1-0.2-0.1-0.3l0.5-0.9c0-0.1,0.1-0.1,0.1-0.1
		c0.1,0,0.1,0,0.2,0c0.4,0.2,0.7,0.4,1.1,0.6c0.4,0.2,0.9,0.3,1.3,0.4c0.4,0.1,0.8,0.2,1.2,0.2c0.5,0,1-0.1,1.5-0.2
		c0.5-0.2,0.9-0.4,1.3-0.7c0.4-0.3,0.7-0.7,0.9-1.1c0.2-0.5,0.3-0.9,0.3-1.5c0-0.6-0.1-1.2-0.4-1.7c-0.3-0.5-0.7-0.9-1.2-1.3
		c-0.6-0.4-1.4-0.8-2.1-1.1c-1.2-0.5-2.4-1.1-3.3-2c-0.8-0.8-1.2-1.7-1.2-2.8c0-0.6,0.1-1.2,0.4-1.8c0.2-0.6,0.6-1.1,1-1.5
		c0.5-0.5,1-0.8,1.7-1c0.7-0.3,1.5-0.4,2.2-0.4c0.7,0,1.5,0.1,2.2,0.3c0.6,0.2,1.2,0.5,1.6,0.8C204,28.9,204,29.1,204,29.2z
		 M190.9,43.3c-0.2,0.2-0.4,0.4-0.6,0.6c-0.4,0.4-0.8,0.7-1.3,1c-0.5,0.3-1.1,0.6-1.7,0.7c-0.7,0.2-1.3,0.3-2,0.3
		c-0.8,0-1.6-0.1-2.3-0.4c-0.6-0.3-1.2-0.6-1.6-1.1c-0.4-0.5-0.7-1-0.9-1.5c-0.2-0.6-0.3-1.1-0.3-1.7c0-1.3,0.4-2.5,1.2-3.5
		c0.9-1.1,2.3-1.8,3.6-2.2c1.8-0.6,3.9-0.7,5.8-0.7c0-0.4,0-0.8,0-1.2c0-0.5-0.1-1.1-0.3-1.6c-0.1-0.5-0.4-1-0.7-1.5
		c-0.3-0.5-0.8-0.8-1.3-1.1c-0.7-0.3-1.4-0.4-2.2-0.4c-0.7,0-1.4,0.1-2.1,0.3c-0.7,0.2-1.4,0.6-2,1c-0.1,0-0.1,0-0.2,0
		c-0.1,0-0.1,0-0.1-0.1l-0.5-0.8c-0.1-0.1,0-0.2,0.1-0.3c0.5-0.4,1.1-0.7,1.7-0.9c0.6-0.2,1.1-0.4,1.7-0.5c0.5-0.1,1-0.1,1.5-0.1
		c0.9,0,1.7,0.1,2.5,0.4c0.6,0.3,1.2,0.6,1.7,1.1c0.4,0.5,0.8,1,1,1.6c0.2,0.6,0.4,1.2,0.5,1.8c0.1,0.6,0.1,1.2,0.1,1.8v6.8
		c0,0.7,0,1.3,0,2c0,0.7,0.1,1.3,0.2,2c0,0.1,0,0.1,0,0.2c0,0-0.1,0.1-0.2,0.1h-1.1c-0.1,0-0.2-0.1-0.2-0.2L190.9,43.3z M176.7,42.6
		c-0.2,0.4-0.5,0.7-0.8,1.1c-0.4,0.5-1,0.9-1.5,1.2c-0.6,0.3-1.2,0.6-1.8,0.8c-0.7,0.2-1.3,0.3-2,0.3c-1.1,0-2.1-0.2-3.1-0.7
		c-0.9-0.4-1.8-1-2.4-1.8c-0.7-0.8-1.2-1.8-1.6-2.8c-0.4-1.1-0.6-2.3-0.6-3.6c0-1.3,0.2-2.7,0.6-3.9c0.4-1.1,1-2.1,1.7-3
		c0.7-0.8,1.6-1.4,2.6-1.9c1-0.4,2-0.7,3.1-0.7c0.6,0,1.2,0.1,1.7,0.2c0.6,0.2,1.2,0.4,1.7,0.7c0.5,0.3,1,0.6,1.5,1
		c0.3,0.3,0.6,0.6,0.8,0.9V20c0-0.1,0.1-0.2,0.2-0.2h1.1c0.1,0,0.2,0.1,0.2,0.2v21.6c0,0.4,0,0.8,0,1.2c0,0.4,0,0.9,0.1,1.3
		c0,0.4,0.1,0.8,0.1,1.3c0,0.1,0,0.1-0.1,0.2c0,0-0.1,0.1-0.2,0.1h-1.1c-0.1,0-0.2-0.1-0.2-0.2L176.7,42.6z M299.2,25.2l-1.1,3.9
		c0,0.1-0.1,0.1-0.1,0.1c-0.1,0-0.1,0-0.2,0c-0.3-0.2-0.7-0.3-1.1-0.5c-0.4-0.2-0.9-0.3-1.3-0.4c-0.5-0.1-1-0.2-1.5-0.2
		c-0.5,0-0.9,0.1-1.3,0.2c-0.3,0.1-0.6,0.3-0.8,0.6c-0.2,0.3-0.3,0.6-0.3,0.9c0,0.3,0.1,0.6,0.3,0.9c0.2,0.3,0.6,0.6,0.9,0.8
		c0.6,0.3,1.2,0.6,1.9,0.9c1.5,0.6,3,1.4,4,2.7c0.9,1.1,1.3,2.4,1.3,3.8c0,1.3-0.3,2.5-1,3.6c-0.7,1.1-1.7,1.8-2.9,2.4
		c-1.4,0.6-3,0.8-4.6,0.8c-0.8,0-1.5-0.1-2.3-0.2c-0.7-0.1-1.4-0.3-2.1-0.5c-0.6-0.2-1.2-0.4-1.7-0.7c-0.1,0-0.1-0.1-0.1-0.2l1.1-4
		c0-0.1,0.1-0.1,0.1-0.1c0.1,0,0.1,0,0.2,0c0.4,0.2,0.9,0.4,1.3,0.6c0.6,0.2,1.1,0.4,1.7,0.5c0.6,0.1,1.2,0.2,1.8,0.2
		c0.7,0,1.5-0.1,2.1-0.5c0.4-0.3,0.6-0.8,0.6-1.4c0-0.3-0.1-0.7-0.2-1c-0.2-0.3-0.5-0.6-0.9-0.8c-0.5-0.3-1.2-0.6-1.8-0.9
		c-1.1-0.5-2.3-1-3.2-1.8c-0.7-0.6-1.4-1.3-1.8-2.1c-0.4-0.7-0.5-1.5-0.5-2.3c0-0.9,0.2-1.8,0.6-2.7c0.4-0.8,0.9-1.5,1.6-2.1
		c0.7-0.6,1.6-1.1,2.5-1.4c1-0.4,2.1-0.5,3.2-0.5c1,0,2,0.1,3,0.3c0.8,0.2,1.6,0.5,2.3,0.8C299.2,25,299.2,25.1,299.2,25.2z
		 M277,31.3c0-0.5-0.1-1.1-0.3-1.6c-0.2-0.5-0.6-0.9-1-1.2c-0.6-0.4-1.5-0.5-2.2-0.5c-0.9,0-1.8,0.1-2.7,0.4c-0.8,0.2-1.6,0.6-2.3,1
		c-0.1,0-0.1,0-0.2,0c-0.1,0-0.1-0.1-0.1-0.1l-1.1-3.6c0-0.1,0-0.2,0.1-0.2c0.6-0.3,1.2-0.6,1.8-0.8c0.8-0.3,1.7-0.5,2.5-0.7
		c1-0.2,2-0.3,3.1-0.3c1.4,0,2.8,0.2,4.1,0.7c1,0.4,1.9,1.1,2.6,2c0.7,0.8,1.1,1.8,1.4,2.8c0.3,1.1,0.4,2.2,0.4,3.3v7.6
		c0,0.6,0,1.2,0,1.8c0,0.6,0.1,1.1,0.1,1.7c0,0.5,0.1,0.9,0.2,1.4c0,0.1,0,0.1,0,0.2c0,0-0.1,0.1-0.2,0.1h-5c-0.1,0-0.2-0.1-0.2-0.2
		l-0.3-1.8c-0.4,0.5-0.8,0.9-1.3,1.2c-0.6,0.4-1.3,0.7-2,0.9c-0.7,0.2-1.5,0.3-2.3,0.3c-0.9,0-1.8-0.2-2.7-0.5
		c-0.8-0.3-1.5-0.8-2.1-1.4c-0.6-0.6-1-1.3-1.3-2c-0.3-0.8-0.5-1.6-0.5-2.5c0-1.3,0.3-2.5,0.9-3.6c0.6-1,1.4-1.9,2.4-2.5
		c1.1-0.7,2.4-1.2,3.7-1.5C274,31.4,275.5,31.3,277,31.3z M260.1,24.2h4.4c0.1,0,0.2,0.1,0.2,0.2v4.1c0,0.1-0.1,0.2-0.2,0.2h-4.4
		v8.8c0,0.8,0.1,1.9,0.6,2.6c0.4,0.6,1,0.7,1.7,0.7c0.3,0,0.6,0,1,0c0.3,0,0.5-0.1,0.8-0.1c0.1,0,0.1,0,0.2,0c0.1,0,0.1,0.1,0.1,0.2
		l0.1,4.2c0,0.1-0.1,0.2-0.1,0.2c-0.5,0.2-1.1,0.3-1.6,0.4c-0.7,0.1-1.5,0.1-2.2,0.1c-0.9,0-1.8-0.1-2.6-0.4
		c-0.7-0.2-1.3-0.6-1.8-1.1c-0.5-0.4-0.8-0.9-1.1-1.5c-0.3-0.5-0.5-1.1-0.6-1.7c-0.1-0.5-0.2-1.1-0.2-1.6c0-0.5,0-0.9,0-1.4V21.5
		c0-0.1,0-0.2,0.1-0.2l5.5-2.5c0.1,0,0.1,0,0.2,0c0.1,0,0.1,0.1,0.1,0.2V24.2z M238.4,27c0.2-0.3,0.5-0.6,0.7-0.8
		c0.4-0.4,0.9-0.8,1.4-1.1c0.6-0.3,1.2-0.6,1.8-0.8c0.7-0.2,1.4-0.3,2.2-0.3c1,0,1.9,0.2,2.8,0.5c0.9,0.4,1.6,0.9,2.2,1.6
		c0.7,0.8,1.2,1.7,1.5,2.7c0.4,1.2,0.5,2.5,0.5,3.8v12.7c0,0.1-0.1,0.2-0.2,0.2h-5.6c-0.1,0-0.2-0.1-0.2-0.2V33.2
		c0-0.8-0.1-1.5-0.3-2.2c-0.2-0.6-0.5-1.1-1-1.5c-0.5-0.4-1.1-0.6-1.8-0.6c-0.4,0-0.8,0.1-1.1,0.2c-0.4,0.2-0.8,0.4-1.1,0.7
		c-0.4,0.3-0.6,0.8-0.8,1.3c-0.2,0.6-0.3,1.3-0.3,1.9v12.3c0,0.1-0.1,0.2-0.2,0.2h-5.6c-0.1,0-0.2-0.1-0.2-0.2V30.8
		c0-1.1,0-2.2,0-3.3c0-1-0.1-1.9-0.1-2.9c0-0.1,0-0.1,0.1-0.2c0,0,0.1-0.1,0.2-0.1h4.8c0.1,0,0.2,0.1,0.2,0.2L238.4,27z M229.3,24.6
		v20.7c0,0.1-0.1,0.2-0.2,0.2h-5.6c-0.1,0-0.2-0.1-0.2-0.2V24.6c0-0.1,0.1-0.2,0.2-0.2h5.6C229.2,24.4,229.3,24.5,229.3,24.6z
		 M214.5,21.9v23.4c0,0.1-0.1,0.2-0.2,0.2h-5.6c-0.1,0-0.2-0.1-0.2-0.2V21.9h-6.9c-0.1,0-0.2-0.1-0.2-0.2v-4.8
		c0-0.1,0.1-0.2,0.2-0.2h19.9c0.1,0,0.2,0.1,0.2,0.2v4.8c0,0.1-0.1,0.2-0.2,0.2H214.5z M229.3,16.9l0,4.8c0,0.1-0.1,0.2-0.2,0.2
		h-5.6c-0.1,0-0.2-0.1-0.2-0.2v-4.8c0-0.1,0.1-0.2,0.2-0.2h5.6C229.2,16.7,229.3,16.8,229.3,16.9z M69.3,16c1.5,0,3,0.2,4.4,0.8
		c1.3,0.5,2.4,1.2,3.4,2.2c1,0.9,1.8,2,2.4,3.2c0.7,1.3,1.1,2.6,1.4,4c0.3,1.5,0.5,3,0.5,4.5c0,2.2-0.2,4.5-0.9,6.6
		C80,39,79.2,40.7,78,42.1c-1.1,1.3-2.4,2.2-4,2.9c-1.6,0.7-3.3,1-5,1c-1.5,0-2.9-0.2-4.3-0.7c-1.3-0.5-2.4-1.2-3.4-2.1
		c-1-0.9-1.8-2-2.5-3.2c-0.7-1.3-1.2-2.7-1.5-4.1c-0.4-1.6-0.5-3.2-0.5-4.8c0-1.6,0.2-3.3,0.6-4.9c0.4-1.4,0.9-2.9,1.6-4.1
		c0.7-1.2,1.6-2.3,2.6-3.2c1-0.9,2.2-1.6,3.5-2.1C66.4,16.3,67.9,16,69.3,16z"/>
	<path class="st0" d="M6.9,20L7,14.1c0-1.6,1.3-3,2.9-3.1l6.1-0.1c0.1,0,0.2,0,0.2,0c0,0,0,0,0,0c0.7,0,1.4,0.3,2,0.8l1.4,1.4v-1.9
		c0-0.7,0.3-1.5,0.8-2c0.1-0.1,0.1-0.1,0.2-0.2l4.2-4.1c1.1-1.1,3.1-1.2,4.2-0.1L33.4,9c0.1,0.1,0.1,0.1,0.2,0.2c0,0,0,0,0,0l0,0
		c0.5,0.5,0.8,1.3,0.8,2v1.9l1.4-1.4c0.5-0.5,1.2-0.8,2-0.9c0.1,0,0.2,0,0.2,0l5.9,0.1c1.6,0,3,1.3,3.1,2.9L47,20c0,0.1,0,0.2,0,0.2
		c0,0,0,0,0,0c0,0.7-0.3,1.4-0.8,2l-1.4,1.4h1.9c0.7,0,1.5,0.3,2,0.8c0.1,0.1,0.1,0.1,0.2,0.2l4.1,4.2c1.1,1.1,1.2,3.1,0.1,4.2
		l-4.2,4.4c-0.1,0.1-0.1,0.1-0.2,0.2c0,0,0,0,0,0l0,0c-0.5,0.5-1.2,0.8-2,0.8h-1.9l1.4,1.4c0.5,0.5,0.8,1.2,0.8,2c0,0.1,0,0.2,0,0.2
		l-0.1,5.9c0,1.6-1.3,3-2.9,3.1l-6.1,0.1c-0.1,0-0.2,0-0.2,0c0,0,0,0,0,0c-0.7,0-1.4-0.3-2-0.8l-1.4-1.4v1.9c0,0.7-0.3,1.5-0.8,2
		c-0.1,0.1-0.1,0.1-0.2,0.2l-4.2,4.1c-1.1,1.1-3.1,1.2-4.2,0.1L20.5,53c-0.1-0.1-0.1-0.1-0.2-0.2c0,0,0,0,0,0l0,0
		c-0.5-0.5-0.8-1.2-0.8-2v-1.9l-1.4,1.4c-0.5,0.5-1.2,0.8-2,0.9c-0.1,0-0.2,0-0.2,0L10.1,51c-1.6,0-3-1.3-3.1-2.9L6.9,42
		c0-0.1,0-0.2,0-0.2c0,0,0,0,0,0c0-0.7,0.3-1.4,0.8-2l1.4-1.4H7.1c-0.7,0-1.5-0.3-2-0.8C5.1,37.6,5,37.5,5,37.4l-4.1-4.2
		c-1.1-1.1-1.2-3.1-0.1-4.2L5,24.6c0.1-0.1,0.1-0.1,0.2-0.2c0,0,0,0,0,0l0,0c0.5-0.5,1.2-0.8,2-0.8h1.9l-1.4-1.4
		c-0.5-0.5-0.8-1.2-0.9-2C6.9,20.2,6.9,20.1,6.9,20"/>
	<path class="st0" d="M43.9,14.1c-0.3-0.3-0.9-0.3-1.3,0c-0.3,0.3-0.3,0.9,0,1.3c0.3,0.3,0.9,0.3,1.3,0C44.2,15,44.2,14.4,43.9,14.1
		"/>
	<path class="st1" d="M21.3,9.9c0,0-0.1,0.1-0.1,0.1l0,0c-0.3,0.3-0.5,0.7-0.5,1.2v12.5c0,0.9,0.8,1.7,1.7,1.7h9
		c0.9,0,1.7-0.8,1.7-1.7V11.2c0-0.5-0.2-0.9-0.5-1.2h0l0,0c0,0-0.1-0.1-0.1-0.1l-4.4-4.2c-0.7-0.6-1.9-0.5-2.6,0.1L21.3,9.9z"/>
	<path class="st2" d="M26.9,25.4h4.5c0.9,0,1.7-0.8,1.7-1.7V11.2c0-0.5-0.2-0.9-0.5-1.2h0l0,0c0,0-0.1-0.1-0.1-0.1l-4.4-4.2
		c-0.3-0.3-0.8-0.4-1.2-0.4v1.8c0.5,0,0.9,0.4,0.9,0.9c0,0.5-0.4,0.9-0.9,0.9v12.6V25.4z"/>
	<path class="st3" d="M8.1,20.1c0,0.1,0,0.1,0,0.2v0c0,0.4,0.2,0.8,0.5,1.2l8.8,8.8c0.7,0.7,1.7,0.7,2.4,0l6.4-6.4
		c0.7-0.7,0.7-1.7,0-2.4l-8.8-8.8c-0.3-0.3-0.7-0.5-1.2-0.5l0,0h0c-0.1,0-0.1,0-0.2,0l-6.1,0.1c-0.9,0-1.7,1-1.7,1.9L8.1,20.1z"/>
	<path class="st4" d="M23,27.1l3.2-3.2c0.7-0.7,0.7-1.7,0-2.4l-8.8-8.8c-0.3-0.3-0.7-0.5-1.2-0.5l0,0h0c-0.1,0-0.1,0-0.2,0l-6.1,0.1
		c-0.4,0-0.8,0.2-1.2,0.5l1.3,1.3c0.3-0.3,0.9-0.3,1.2,0c0.3,0.3,0.3,0.9,0,1.2l8.9,8.9L23,27.1z"/>
	<path class="st5" d="M5.9,36.6c0,0,0.1,0.1,0.1,0.1c0.3,0.3,0.7,0.5,1.2,0.5h12.5c0.9,0,1.7-0.8,1.7-1.7v-9c0-0.9-0.8-1.7-1.7-1.7
		H7.1c-0.5,0-0.9,0.2-1.2,0.5v0l0,0c0,0-0.1,0.1-0.1,0.1l-4.2,4.4c-0.6,0.7-0.5,1.9,0.1,2.6L5.9,36.6z"/>
	<path class="st6" d="M21.4,31v-4.5c0-0.9-0.8-1.7-1.7-1.7H7.1c-0.5,0-0.9,0.2-1.2,0.5v0l0,0c0,0-0.1,0.1-0.1,0.1l-4.2,4.4
		c-0.3,0.3-0.4,0.8-0.4,1.2H3c0-0.5,0.4-0.9,0.9-0.9c0.5,0,0.9,0.4,0.9,0.9h12.6H21.4z"/>
	<path class="st7" d="M16,49.9c0.1,0,0.1,0,0.2,0h0c0.4,0,0.8-0.2,1.2-0.5l8.8-8.8c0.7-0.7,0.7-1.7,0-2.4l-6.4-6.4
		c-0.7-0.7-1.7-0.7-2.4,0l-8.8,8.8c-0.3,0.3-0.5,0.7-0.5,1.2l0,0l0,0c0,0.1,0,0.1,0,0.2L8.2,48c0,0.9,1,1.7,1.9,1.7L16,49.9z"/>
	<path class="st8" d="M23,34.9l-3.2-3.2c-0.7-0.7-1.7-0.7-2.4,0l-8.8,8.8c-0.3,0.3-0.5,0.7-0.5,1.2l0,0v0c0,0.1,0,0.1,0,0.2L8.2,48
		c0,0.4,0.2,0.8,0.5,1.2l1.3-1.3c-0.3-0.3-0.3-0.9,0-1.2c0.3-0.3,0.9-0.3,1.2,0l8.9-8.9L23,34.9z"/>
	<path class="st9" d="M32.6,52.1c0,0,0.1-0.1,0.1-0.1l0,0c0.3-0.3,0.5-0.7,0.5-1.2V38.3c0-0.9-0.8-1.7-1.7-1.7h-9
		c-0.9,0-1.7,0.8-1.7,1.7v12.5c0,0.5,0.2,0.9,0.5,1.2h0l0,0c0,0,0.1,0.1,0.1,0.1l4.4,4.2c0.7,0.6,1.9,0.5,2.6-0.1L32.6,52.1z"/>
	<path class="st10" d="M26.9,36.6h-4.5c-0.9,0-1.7,0.8-1.7,1.7v12.5c0,0.5,0.2,0.9,0.5,1.2h0l0,0c0,0,0.1,0.1,0.1,0.1l4.4,4.2
		c0.3,0.3,0.8,0.4,1.2,0.4v-1.8c-0.5,0-0.9-0.4-0.9-0.9s0.4-0.9,0.9-0.9V40.6V36.6z"/>
	<path class="st11" d="M45.8,41.9c0-0.1,0-0.1,0-0.2v0c0-0.4-0.2-0.8-0.5-1.2l-8.8-8.8c-0.7-0.7-1.8-0.7-2.4,0l-6.4,6.4
		c-0.7,0.7-0.7,1.7,0,2.4l8.8,8.8c0.3,0.3,0.7,0.5,1.2,0.5l0,0h0c0.1,0,0.1,0,0.2,0l6.1-0.1c0.9,0,1.7-1,1.7-1.9L45.8,41.9z"/>
	<path class="st12" d="M30.9,34.9l-3.2,3.2c-0.7,0.7-0.7,1.7,0,2.4l8.8,8.8c0.3,0.3,0.7,0.5,1.2,0.5l0,0h0c0.1,0,0.1,0,0.2,0
		l6.1-0.1c0.4,0,0.8-0.2,1.2-0.5l-1.3-1.3c-0.3,0.3-0.9,0.3-1.2,0c-0.3-0.3-0.3-0.9,0-1.2l-8.9-8.9L30.9,34.9z"/>
	<path class="st13" d="M48,25.4c0,0-0.1-0.1-0.1-0.1c-0.3-0.3-0.7-0.5-1.2-0.5H34.2c-0.9,0-1.7,0.8-1.7,1.7v9c0,0.9,0.8,1.7,1.7,1.7
		h12.5c0.5,0,0.9-0.2,1.2-0.5v0l0,0c0,0,0.1-0.1,0.1-0.1l4.2-4.4c0.6-0.7,0.5-1.9-0.1-2.6L48,25.4z"/>
	<path class="st14" d="M32.5,31v4.5c0,0.9,0.8,1.7,1.7,1.7h12.5c0.5,0,0.9-0.2,1.2-0.5v0l0,0c0,0,0.1-0.1,0.1-0.1l4.2-4.4
		c0.3-0.3,0.4-0.8,0.4-1.2h-1.8c0,0.5-0.4,0.9-0.9,0.9c-0.5,0-0.9-0.4-0.9-0.9H36.5H32.5z"/>
	<path class="st15" d="M37.9,12.1c-0.1,0-0.1,0-0.2,0h0c-0.4,0-0.8,0.2-1.2,0.5l-8.8,8.8c-0.7,0.7-0.7,1.8,0,2.4l6.4,6.4
		c0.7,0.7,1.7,0.7,2.4,0l8.8-8.8c0.3-0.3,0.5-0.7,0.5-1.2l0,0l0,0c0-0.1,0-0.1,0-0.2L45.7,14c0-0.9-1-1.7-1.9-1.7L37.9,12.1z"/>
	<path class="st16" d="M30.9,27.1l3.2,3.2c0.7,0.7,1.7,0.7,2.4,0l8.8-8.8c0.3-0.3,0.5-0.7,0.5-1.2l0,0v0c0-0.1,0-0.1,0-0.2L45.7,14
		c0-0.4-0.2-0.8-0.5-1.2l-1.3,1.3c0.3,0.3,0.3,0.9,0,1.2c-0.3,0.3-0.9,0.3-1.2,0l-8.9,8.9L30.9,27.1z"/>
	<path class="st1" d="M26.9,25.4h4.5c0.9,0,1.7-0.8,1.7-1.7V11.2c0-0.5-0.2-0.9-0.5-1.2h0l0,0c0,0-0.1-0.1-0.1-0.1l-4.4-4.2
		c-0.3-0.3-0.8-0.4-1.2-0.4V25.4z"/>
	<path class="st0" d="M43.9,14.1c-0.3-0.3-0.9-0.3-1.3,0c-0.3,0.3-0.3,0.9,0,1.3c0.3,0.3,0.9,0.3,1.3,0C44.2,15,44.2,14.4,43.9,14.1
		"/>
	<path class="st0" d="M50.9,31c0-0.5-0.4-0.9-0.9-0.9c-0.5,0-0.9,0.4-0.9,0.9c0,0.5,0.4,0.9,0.9,0.9C50.5,31.9,50.9,31.5,50.9,31"/>
	<path class="st0" d="M10,47.9c0.3,0.3,0.9,0.3,1.3,0c0.3-0.3,0.3-0.9,0-1.3c-0.3-0.3-0.9-0.3-1.3,0C9.7,47,9.7,47.6,10,47.9"/>
	<path class="st0" d="M43.9,47.9c0.3-0.3,0.3-0.9,0-1.3c-0.3-0.3-0.9-0.3-1.3,0c-0.3,0.3-0.3,0.9,0,1.3
		C42.9,48.3,43.5,48.3,43.9,47.9"/>
	<path class="st0" d="M10,14.1c-0.3,0.3-0.3,0.9,0,1.3c0.3,0.3,0.9,0.3,1.3,0c0.3-0.3,0.3-0.9,0-1.3C10.9,13.7,10.4,13.7,10,14.1"/>
	<path class="st0" d="M3,31c0,0.5,0.4,0.9,0.9,0.9c0.5,0,0.9-0.4,0.9-0.9c0-0.5-0.4-0.9-0.9-0.9C3.4,30.1,3,30.5,3,31"/>
	<path class="st0" d="M26.9,54.9c0.5,0,0.9-0.4,0.9-0.9c0-0.5-0.4-0.9-0.9-0.9c-0.5,0-0.9,0.4-0.9,0.9
		C26.1,54.5,26.5,54.9,26.9,54.9"/>
	<path class="st0" d="M26.9,7.1c-0.5,0-0.9,0.4-0.9,0.9c0,0.5,0.4,0.9,0.9,0.9c0.5,0,0.9-0.4,0.9-0.9C27.8,7.5,27.4,7.1,26.9,7.1"/>
	<path class="st2" d="M26.9,25.4h4.5c0.9,0,1.7-0.8,1.7-1.7V11.2c0-0.5-0.2-0.9-0.5-1.2h0l0,0c0,0-0.1-0.1-0.1-0.1l-4.4-4.2
		c-0.3-0.3-0.8-0.4-1.2-0.4v1.8c0.5,0,0.9,0.4,0.9,0.9c0,0.5-0.4,0.9-0.9,0.9v12.6V25.4z"/>
	<path class="st17" d="M21.4,28.7v-2.2c0-0.9-0.8-1.7-1.7-1.7H12l5.4,5.4c0.7,0.7,1.8,0.7,2.4,0L21.4,28.7z"/>
	<path class="st18" d="M29.2,36.6l-1.6,1.6c-0.7,0.7-0.7,1.7,0,2.4l5.4,5.4v-7.7c0-0.9-0.8-1.7-1.7-1.7H29.2z"/>
	<path class="st19" d="M24.6,25.4l1.6-1.6c0.7-0.7,0.7-1.7,0-2.4L20.7,16v7.7c0,0.9,0.8,1.7,1.7,1.7H24.6z"/>
	<path class="st20" d="M33.1,16l-5.4,5.4c-0.7,0.7-0.7,1.8,0,2.4l1.5,1.5h2.2c0.9,0,1.7-0.8,1.7-1.7V16z"/>
	<path class="st21" d="M41.9,24.8h-7.7c-0.9,0-1.7,0.8-1.7,1.7v2.2l1.6,1.6c0.7,0.7,1.7,0.7,2.4,0L41.9,24.8z"/>
	<path class="st22" d="M41.9,37.2l-5.4-5.4c-0.7-0.7-1.8-0.7-2.4,0l-1.5,1.5v2.2c0,0.9,0.8,1.7,1.7,1.7H41.9z"/>
	<path class="st23" d="M20.7,46l5.4-5.4c0.7-0.7,0.7-1.7,0-2.4l-1.5-1.5h-2.2c-0.9,0-1.7,0.8-1.7,1.7V46z"/>
	<path class="st24" d="M12,37.2h7.7c0.9,0,1.7-0.8,1.7-1.7v-2.2l-1.6-1.6c-0.7-0.7-1.7-0.7-2.4,0L12,37.2z"/>
</g>
</svg>
